<?xml version="1.0" encoding="UTF-8"?>
<svg id="_图层_2" data-name="图层 2" xmlns="http://www.w3.org/2000/svg" viewBox="0 0 249.11 202.74">
  <defs>
    <style>
      .cls-1 {
        fill: #4da519;
      }

      .cls-2 {
        fill: #faff98;
      }
    </style>
  </defs>
  <g id="_图层_1-2" data-name="图层 1">
    <g>
      <path class="cls-1" d="M248.02,124.15c-1.9,5.81-3.44,11.77-5.78,17.39-4.1,9.82-10.59,18.05-18.69,24.92-8.43,7.15-16.87,14.29-25.56,21.11-15.12,11.85-32.48,16.52-51.49,14.83-40.64-3.62-81.28-7.38-121.91-11.17-14.72-1.37-22.8-14.41-17.68-28.25,4.59-12.38,14.53-19.48,27.97-20.24,16.3-.93,32.58-2.03,48.87-3.07.9-.06,1.8-.22,3.02-.38-.86-1.1-1.53-1.98-2.23-2.83C58.74,105.46,32.96,74.45,7.13,43.47,2.69,38.14.12,32.25,0,25.18-.2,12.83,11.45.73,23.8.53c8.95-.15,16.08,3.24,21.73,10.09,6.01,7.29,12.07,14.53,18.12,21.79.59.71,1.23,1.39,2.06,2.33,3.72-7.86,9.5-13.03,17.82-14.96,8.36-1.94,15.84.21,22.67,5.75,3.7-8,9.49-13.3,17.98-15.25,8.4-1.93,15.86.2,22.63,5.74,2.26-4.67,5.1-8.68,9.42-11.53,11.15-7.37,25.66-5.59,33.81,4.99,15.51,20.12,30.77,40.44,45.83,60.9,8.5,11.56,12.47,24.85,12.92,39.19.03.92.2,1.83.31,2.75-.36,3.95-.72,7.9-1.09,11.85Z"/>
      <path class="cls-2" d="M89.58,183.94c19,1.74,38,3.44,57,5.24,16.32,1.55,31.15-2.23,44.03-12.51,8.56-6.83,17.12-13.71,25.22-21.07,23.38-21.27,26.45-54.69,7.61-80.15-5.67-7.67-11.48-15.24-17.23-22.85-8.65-11.46-17.29-22.93-25.97-34.36-4.22-5.56-11.34-6.69-16.81-2.77-5.42,3.89-6.56,11.11-2.67,16.83.58.86,1.2,1.71,1.65,2.63,1.15,2.32.92,4.57-.63,6.66-1.55,2.09-3.73,3.18-6.17,2.43-1.77-.54-3.59-1.7-4.83-3.09-3.91-4.36-7.54-8.96-11.3-13.45-3.09-3.68-7.02-5.4-11.81-4.52-8.9,1.64-12.83,11.75-7.29,19.13,3.79,5.06,8.07,9.75,12.04,14.67,2.78,3.45,2.58,7.42-.33,9.85-2.96,2.48-6.77,1.95-9.76-1.42-1.69-1.91-3.28-3.91-4.91-5.87-6.16-7.41-12.27-14.86-18.5-22.2-4.89-5.77-12.28-6.52-17.55-1.94-5.2,4.52-5.63,11.68-.88,17.46,7.44,9.05,14.98,18.01,22.45,27.03.84,1.01,1.64,2.1,2.2,3.27,1.16,2.46.7,4.82-1.09,6.83-1.78,2-4.15,2.93-6.61,1.81-1.8-.82-3.5-2.2-4.78-3.73-18.91-22.6-37.74-45.28-56.59-67.92-.9-1.09-1.81-2.19-2.85-3.14-6.73-6.15-17.64-2.68-19.67,6.19-1.07,4.7.66,8.42,3.59,11.95,29.09,34.9,58.13,69.84,87.22,104.74,2,2.4,3.29,4.88,2.04,8.01-1.27,3.16-3.96,4.04-7.07,4.24-8.95.55-17.89,1.12-26.84,1.7-13.18.86-26.37,1.6-39.53,2.69-7.41.61-12.9,6.08-14.18,13.32-.74,4.23,1.21,7.26,5.35,8.18,1.1.25,2.24.35,3.36.45,20.69,1.91,41.39,3.8,62.08,5.7Z"/>
    </g>
  </g>
</svg>