<?xml version="1.0" encoding="UTF-8"?>
<svg id="_图层_2" data-name="图层 2" xmlns="http://www.w3.org/2000/svg" viewBox="0 0 125.85 99.79">
  <defs>
    <style>
      .cls-1 {
        fill: #4da519;
      }
    </style>
  </defs>
  <g id="_图层_1-2" data-name="图层 1">
    <g>
      <path class="cls-1" d="M54.18,11.32l-21.62,18.7c-1.04.9-2.37,1.39-3.74,1.39H5.72c-3.16,0-5.72,2.56-5.72,5.72v24.95c0,3.16,2.56,5.72,5.72,5.72h22.63c1.37,0,2.7.49,3.74,1.39l22.09,19.11c3.71,3.21,9.46.57,9.46-4.33V15.64c0-4.9-5.76-7.53-9.46-4.33Z"/>
      <path class="cls-1" d="M105.98,99.79c-.79,0-1.58-.26-2.24-.79-1.54-1.24-1.78-3.49-.55-5.02,20.52-25.54,20.52-62.62,0-88.16-1.24-1.54-.99-3.79.55-5.02,1.54-1.24,3.79-.99,5.02.55,11.02,13.72,17.09,30.96,17.09,48.56s-6.07,34.84-17.09,48.56c-.71.88-1.74,1.34-2.79,1.34ZM93.59,87.4c-.74,0-1.48-.23-2.12-.7-1.59-1.17-1.93-3.41-.76-5,14.02-19.03,14.02-44.59,0-63.62-1.17-1.59-.83-3.83.76-5,1.59-1.17,3.83-.83,5,.76,7.75,10.52,11.85,22.98,11.85,36.05s-4.1,25.53-11.85,36.05c-.7.95-1.78,1.45-2.88,1.45ZM80.05,73.86c-.67,0-1.35-.19-1.96-.59-1.65-1.08-2.11-3.3-1.03-4.95,7.35-11.2,7.35-25.67,0-36.87-1.08-1.65-.62-3.87,1.03-4.95,1.65-1.08,3.87-.62,4.95,1.03,8.91,13.58,8.91,31.13,0,44.71-.69,1.05-1.83,1.61-2.99,1.61Z"/>
    </g>
  </g>
</svg>